<svg xmlns:dc="http://purl.org/dc/elements/1.1/" xmlns:cc="http://creativecommons.org/ns#" xmlns:rdf="http://www.w3.org/1999/02/22-rdf-syntax-ns#" xmlns:svg="http://www.w3.org/2000/svg" xmlns="http://www.w3.org/2000/svg" xmlns:sodipodi="http://sodipodi.sourceforge.net/DTD/sodipodi-0.dtd" xmlns:inkscape="http://www.inkscape.org/namespaces/inkscape" version="1.1" x="0px" y="0px" viewBox="0 0 100 125"><g transform="translate(0,-952.36218)"><path style="text-indent:0;text-transform:none;direction:ltr;block-progression:tb;baseline-shift:baseline;color:#000000;enable-background:accumulate;" d="m 69.160618,1019.2642 c 0.119,-12.9577 0.053,-24.87823 0.209,-36.27153 -12.9489,0.1314 -24.893,0.05 -36.2714,0.2091 -0.041,2.9635 -0.05,5.2213 -0.088,8.0531 7.7678,-0.038 15.8009,-0.071 22.5392,-0.1053 l -24.3573,24.35743 c -0.7455,0.7454 -0.7491,2.0979 -0.01,2.8395 l 2.832,2.8318 c 0.7413,0.7413 2.094,0.7378 2.8396,-0.01 l 24.3572,-24.35753 c -0.066,7.50573 -0.025,15.01193 -0.1274,22.51713 2.7332,10e-5 5.6831,-0.059 8.0752,-0.066 z" fill="#000000" fill-opacity="1" stroke="none" marker="none" visibility="visible" display="inline" overflow="visible"/></g></svg>