<svg xmlns="http://www.w3.org/2000/svg" data-name="Camada 1" viewBox="0 0 100 125" x="0px" y="0px"><path d="m87.11,40.5c-1.95-7.64-6.37-14.5-12.65-19.29-7.06-5.39-16.38-7.5-25.1-8.04-2.31-.14-4.62-.14-6.94-.02-1.62.09-2.3,1.59-2.05,2.81-5.4.76-10.63,2.82-14.99,6.05-6.24,4.64-10.88,11.36-12.73,18.95-3.8,15.56,4.15,32.06,17.62,40.19,6.52,3.94,14.25,6.05,21.87,5.76,7.28-.27,14.45-2.75,20.37-6.99,6.01-4.31,10.74-10.14,13.43-17.04,2.76-7.06,3.04-15.06,1.17-22.38Zm-25.41-14.71c1.15-.37,2.83.44,3.01,1.72.71,4.86,1.41,9.72,2.12,14.57.19,1.37-.32,2.57-1.72,3.02-1.15.37-2.83-.44-3.01-1.71-.71-4.86-1.41-9.72-2.11-14.58-.2-1.37.31-2.57,1.71-3.02Zm-14.8,1.09c1.35-.06,2.42,1.17,2.45,2.45.14,4.61.5,9.21,1.08,13.79.18,1.36-1.26,2.4-2.45,2.45-1.44.07-2.29-1.18-2.45-2.45-.59-4.58-.95-9.18-1.08-13.79-.04-1.38,1.16-2.4,2.45-2.45Zm22.14,37.33c-3.45,2.91-8.02,4.15-12.47,4.08-4.43-.07-8.95-1.38-12.27-4.4-3.02-2.75-4.59-6.92-3.45-10.92.31-1.09,1.27-1.72,2.37-1.8,9.36-.68,18.75-.9,28.13-.66,2.39.06,2.96,2.88,1.73,4.21.32,3.63-1.22,7.11-4.04,9.49Z"/></svg>