<svg xmlns="http://www.w3.org/2000/svg" data-name="Camada 1" viewBox="0 0 100 125" x="0px" y="0px"><path d="m87.11,40.5c-1.95-7.64-6.37-14.51-12.65-19.29-7.06-5.39-16.38-7.5-25.1-8.04-2.31-.14-4.62-.14-6.94-.02-1.62.09-2.3,1.58-2.05,2.81-5.4.76-10.63,2.81-14.99,6.05-6.24,4.63-10.88,11.36-12.73,18.94-3.8,15.57,4.15,32.07,17.62,40.2,6.52,3.93,14.25,6.04,21.87,5.76,7.28-.27,14.45-2.76,20.37-7,6.01-4.3,10.74-10.14,13.43-17.04,2.76-7.06,3.04-15.06,1.17-22.37Zm-49.76-13.84c1.58-.07,2.83,1.37,2.87,2.87.16,5.41.58,10.8,1.27,16.17.2,1.59-1.48,2.81-2.88,2.87-1.68.08-2.68-1.39-2.87-2.87-.69-5.37-1.11-10.76-1.26-16.17-.05-1.61,1.35-2.8,2.87-2.87Zm33.56,29.75c-3.45,7.78-11.35,13.17-19.82,13.72-8.51.55-16.87-4.12-21.28-11.33-1.94-3.16,3.04-6.05,4.96-2.9,3.42,5.58,9.8,8.9,16.32,8.48,6.57-.42,12.25-4.99,14.86-10.87.63-1.42,2.7-1.74,3.93-1.03,1.44.85,1.66,2.52,1.03,3.93Zm-.79-13.73c-1.32.86-3.15.25-3.93-1.03-.01-.02-.23-.37-.3-.46-.23-.26-.46-.51-.72-.75-.01-.01-.1-.09-.18-.16-.05-.04-.1-.07-.15-.1-.29-.2-.6-.38-.91-.54-.05-.03-.1-.05-.15-.07-.1-.05-.21-.09-.24-.1-.33-.12-.67-.21-1.01-.28-.05-.01-.13-.03-.21-.04-.06-.01-.12-.01-.18-.01-.32-.02-.63,0-.95,0h-.05c-.15.03-.29.05-.44.08-.31.08-.6.19-.91.28-.16.08-.31.15-.47.24-.27.15-.53.33-.8.5h0c-.13.13-.27.24-.4.36-.22.21-.41.44-.61.67-.02.02-.01.01-.03.04-.07.12-.15.24-.22.36-.19.3-.34.61-.49.94-.65,1.46-2.68,1.69-3.93,1.03-1.47-.78-1.64-2.56-1.03-3.93,1.63-3.67,5.44-6.06,9.38-6.32,3.99-.26,7.91,2,9.96,5.36.84,1.37.26,3.1-1.03,3.93Z"/></svg>